<mxfile host="65bd71144e">
    <diagram id="01lpCUUcFC_XIkWR1Nqm" name="Page-1">
        <mxGraphModel dx="1626" dy="827" grid="1" gridSize="10" guides="1" tooltips="1" connect="1" arrows="1" fold="1" page="1" pageScale="1" pageWidth="827" pageHeight="1169" math="0" shadow="0">
            <root>
                <mxCell id="0"/>
                <mxCell id="1" parent="0"/>
                <mxCell id="2" value="In Strategy, image we are developing a game engine where we provide 2DObject. For a 2DObject we provide users interface to use direction keys (up, down, left, right)." style="rounded=1;whiteSpace=wrap;html=1;" vertex="1" parent="1">
                    <mxGeometry x="120" y="60" width="600" height="140" as="geometry"/>
                </mxCell>
            </root>
        </mxGraphModel>
    </diagram>
</mxfile>